<?xml version="1.0" encoding="UTF-8"?>
<svg width="31px" height="43px" viewBox="0 0 31 43" version="1.1" xmlns="http://www.w3.org/2000/svg" xmlns:xlink="http://www.w3.org/1999/xlink">
    <!-- Generator: Sketch 55.2 (78181) - https://sketchapp.com -->
    <title>maps-and-flags</title>
    <desc>Created with Sketch.</desc>
    <g id="Guest" stroke="none" stroke-width="1" fill="none" fill-rule="evenodd">
        <g id="Guest/Hazards" transform="translate(-541.000000, -320.000000)" fill="#C89000" fill-rule="nonzero">
            <g id="maps-and-flags" transform="translate(541.000000, 320.000000)">
                <path d="M15.5,0 C6.95325384,0 0,6.98599679 0,15.5729057 C0,26.2295281 13.8709816,41.8740725 14.4615509,42.5348624 C15.0162598,43.1555917 15.9847433,43.1544999 16.5384491,42.5348624 C17.1290184,41.8740725 31,26.2295281 31,15.5729057 C31,6.98599679 24.0466626,0 15.5,0 Z M15.5,23.4080695 C11.1999196,23.4080695 7.70164269,19.8932352 7.70164269,15.5729057 C7.70164269,11.2525762 11.2000032,7.73782584 15.5,7.73782584 C19.7999968,7.73782584 23.2982737,11.2526602 23.2982737,15.5729897 C23.2982737,19.8933192 19.7999968,23.4080695 15.5,23.4080695 Z" id="Shape"></path>
            </g>
        </g>
    </g>
</svg>