<?xml version="1.0" encoding="UTF-8"?>
<svg width="24px" height="24px" viewBox="0 0 24 24" version="1.1" xmlns="http://www.w3.org/2000/svg" xmlns:xlink="http://www.w3.org/1999/xlink">
    <!-- Generator: Sketch 52.6 (67491) - http://www.bohemiancoding.com/sketch -->
    <title>Icon/upload</title>
    <desc>Created with Sketch.</desc>
    <g id="Icon/upload" stroke="none" stroke-width="1" fill="none" fill-rule="evenodd">
        <g id="up-arrow-inside-a-square" transform="translate(3.000000, 0.000000)" fill="#000000" opacity="0.03">
            <path d="M13.1728,10.8965333 C13.3397333,10.7301333 13.3397333,10.4613333 13.1728,10.2944 L9.40426667,6.52586667 C9.3648,6.4864 9.3168,6.45493333 9.26666667,6.432 C9.21226667,6.4112 9.1584,6.40106667 9.10186667,6.40106667 C9.04586667,6.40106667 8.99146667,6.4112 8.93973333,6.432 C8.88746667,6.45493333 8.83946667,6.4864 8.8,6.52586667 L5.03146667,10.2944 C4.86453333,10.4613333 4.86453333,10.7322667 5.03146667,10.8965333 C5.19786667,11.0634667 5.4688,11.0634667 5.6352,10.8965333 L8.6752,7.85706667 L8.6752,23.0405333 C8.6752,23.2757333 8.86666667,23.4677333 9.10186667,23.4677333 C9.3376,23.4677333 9.52906667,23.2757333 9.52906667,23.0405333 L9.52906667,7.85706667 L12.5685333,10.8965333 C12.7354667,11.0634667 13.0064,11.0634667 13.1728,10.8965333 Z" id="Fill-1"></path>
            <path d="M0.4272,18.4885333 L4.90613333,18.4885333 C5.14186667,18.4885333 5.33333333,18.2986667 5.33333333,18.0634667 C5.33333333,17.8277333 5.14186667,17.6362667 4.90613333,17.6362667 L0.8544,17.6362667 L0.8544,1.13813333 L17.352,1.13813333 L17.352,17.6362667 L13.1728,17.6362667 C12.9376,17.6362667 12.7456,17.8277333 12.7456,18.0634667 C12.7456,18.2986667 12.9376,18.4885333 13.1728,18.4885333 L17.7792,18.4885333 C18.0144,18.4885333 18.2042667,18.2986667 18.2042667,18.0634667 L18.2042667,0.711466667 C18.2042667,0.475733333 18.0144,0.284266667 17.7792,0.284266667 L0.4272,0.284266667 C0.191466667,0.284266667 0,0.475733333 0,0.711466667 L0,18.0634667 C0,18.2986667 0.191466667,18.4885333 0.4272,18.4885333 Z" id="Fill-2"></path>
        </g>
    </g>
</svg>